<svg version="1.1" id="Layer_1" xmlns="http://www.w3.org/2000/svg" xmlns:xlink="http://www.w3.org/1999/xlink" x="0px" y="0px"
	 width="100%" viewBox="0 0 1238 1042" enable-background="new 0 0 1238 1042" xml:space="preserve">
<path fill="#FFFFFF" opacity="1.000000" stroke="none" 
	d="
M1.000000,357.000000 
	C1.000000,238.000000 1.000000,119.500000 1.000000,1.000000 
	C413.666656,1.000000 826.333313,1.000000 1239.000000,1.000000 
	C1239.000000,348.333344 1239.000000,695.666687 1239.000000,1043.000000 
	C826.333313,1043.000000 413.666656,1043.000000 1.000000,1043.000000 
	C1.000000,814.500000 1.000000,586.000000 1.000000,357.000000 
M875.235535,362.499939 
	C875.235535,435.255127 875.235535,508.010315 875.235535,580.834839 
	C876.880615,580.917786 877.869873,581.011414 878.859131,581.011353 
	C944.348999,581.006531 1009.841248,581.288513 1075.326904,580.756409 
	C1090.034912,580.636902 1104.956909,578.808716 1119.373779,575.811584 
	C1175.965698,564.046448 1212.393433,522.791565 1216.945068,464.991730 
	C1218.575928,444.281006 1218.026611,423.381622 1218.026245,402.568329 
	C1218.026001,394.952789 1217.268799,387.242615 1215.940918,379.737701 
	C1209.229126,341.803802 1188.357788,314.621826 1152.802246,299.551697 
	C1141.718628,294.853851 1129.768311,292.200897 1118.401123,288.669739 
	C1118.126221,289.047943 1118.197510,288.833221 1118.318237,288.800476 
	C1123.113525,287.499878 1127.955811,286.354889 1132.706055,284.907837 
	C1175.584351,271.846130 1203.171387,244.527466 1209.417480,199.212906 
	C1212.830933,174.448074 1212.320679,149.285721 1209.024658,124.427315 
	C1202.923706,78.416306 1178.922852,45.594830 1135.691772,27.600201 
	C1112.063477,17.765057 1087.128784,15.155927 1061.830322,15.117054 
	C1001.339661,15.024108 940.848938,15.040820 880.358215,15.026002 
	C878.755859,15.025609 877.153503,15.171605 875.235535,15.264644 
	C875.235535,130.928299 875.235535,246.214111 875.235535,362.499939 
M788.887146,496.613831 
	C782.901611,491.565186 776.992371,486.421631 770.890442,481.517853 
	C768.666748,479.730865 768.009644,478.242126 768.912048,475.289948 
	C774.447693,457.179504 777.093384,438.596588 777.096863,419.658234 
	C777.111755,338.493652 777.111511,257.329041 777.085999,176.164444 
	C777.080811,159.602249 775.158630,143.249176 770.884644,127.237656 
	C757.263611,76.209854 726.226379,40.383633 676.544250,22.026028 
	C632.751831,5.844708 587.833740,5.416049 542.851257,16.732624 
	C512.076050,24.474981 485.575226,39.929535 464.660797,64.140083 
	C438.325592,94.625793 426.612579,130.890976 426.260406,170.406342 
	C425.514832,254.064224 425.692322,337.735199 426.258331,421.395569 
	C426.364319,437.054810 428.537872,453.070282 432.363464,468.265198 
	C444.142212,515.049438 471.990021,549.338318 516.029602,569.802979 
	C538.660583,580.319275 562.693176,585.175354 587.544006,586.402771 
	C620.195679,588.015442 652.142456,584.741882 682.437927,571.720093 
	C693.060486,567.154358 703.038391,561.088867 713.684204,555.512512 
	C732.044983,570.972168 750.839539,586.796997 769.892151,602.839111 
	C789.938416,578.598145 809.649048,554.763062 829.497925,530.760925 
	C815.928894,519.347107 802.683411,508.205414 788.887146,496.613831 
M360.047424,155.573914 
	C359.017609,146.649887 358.584290,137.608688 356.858093,128.821472 
	C347.802155,82.721855 322.521484,49.037834 279.376892,29.525450 
	C255.264648,18.620546 229.624527,15.148874 203.416107,15.113389 
	C142.916245,15.031473 82.416252,15.040050 21.916309,15.026324 
	C20.485111,15.025999 19.053879,15.195672 17.705084,15.280848 
	C17.705084,204.046432 17.705084,392.425903 17.705084,580.681152 
	C51.670540,580.681152 85.248970,580.681152 119.178337,580.681152 
	C119.178337,507.572968 119.178337,434.801392 119.178337,361.694550 
	C121.328026,361.694550 123.133148,361.697052 124.938263,361.694183 
	C150.271530,361.653687 175.614426,362.016876 200.934357,361.414795 
	C215.375854,361.071411 229.923233,360.043427 244.169510,357.749634 
	C269.962311,353.596710 293.215271,343.094147 313.043579,325.838226 
	C344.354645,298.589172 358.471252,263.249695 359.908203,222.544708 
	C360.683807,200.573853 360.056702,178.553497 360.047424,155.573914 
M694.933838,894.518188 
	C694.933838,933.268982 694.933838,972.019714 694.933838,1011.004395 
	C697.226562,1011.004395 698.873535,1011.007812 700.520447,1011.003906 
	C714.018494,1010.971497 727.533508,1011.350952 741.010376,1010.799805 
	C757.855774,1010.110840 768.314087,999.507690 769.626648,982.707642 
	C769.872742,979.558472 770.263428,976.273071 769.657166,973.236267 
	C768.472473,967.302246 767.312866,961.195557 764.874939,955.725403 
	C762.307678,949.965149 756.633850,947.097717 749.031433,945.051758 
	C760.649048,941.738770 766.397827,934.544434 767.623474,924.349121 
	C768.349365,918.310425 768.109619,911.981201 767.182922,905.955017 
	C765.333740,893.930725 757.781555,885.722778 745.969971,884.509033 
	C729.185181,882.784180 712.186035,883.146484 694.933838,882.606201 
	C694.933838,886.915344 694.933838,890.220093 694.933838,894.518188 
M143.629089,943.500122 
	C143.496582,934.508728 143.766586,925.489807 143.152054,916.531433 
	C141.632339,894.377930 126.737862,881.529053 103.664375,881.986084 
	C82.253197,882.410156 67.582169,896.591248 67.122978,918.130249 
	C66.711189,937.446106 66.708282,956.785034 67.130325,976.100464 
	C67.596420,997.431396 82.020515,1011.408081 103.246681,1012.171265 
	C113.895332,1012.554077 123.596619,1010.131653 131.887222,1003.135742 
	C136.951523,1006.925049 141.711746,1010.486816 146.659119,1014.188599 
	C149.796890,1010.182983 152.760773,1006.399353 155.858017,1002.445496 
	C153.235825,1000.444092 150.900528,998.229126 148.185715,996.678711 
	C142.355942,993.349182 139.125534,989.351379 142.615295,982.398376 
	C143.315567,981.003052 143.193130,979.128662 143.219025,977.471558 
	C143.390823,966.481628 143.499664,955.490723 143.629089,943.500122 
M997.000061,1002.452148 
	C997.000061,987.373474 997.000061,972.294861 997.000061,957.009644 
	C1002.807983,957.009644 1007.967346,957.226257 1013.097107,956.930054 
	C1016.280090,956.746277 1017.759705,957.845886 1018.921570,960.782043 
	C1025.093506,976.378296 1031.443481,991.904846 1037.868286,1007.398926 
	C1038.452271,1008.807251 1039.946533,1010.774353 1041.117065,1010.845154 
	C1046.968872,1011.199280 1052.853638,1011.007141 1059.211548,1011.007141 
	C1050.963135,991.726624 1043.026001,973.173401 1035.030640,954.484314 
	C1048.293945,948.641602 1054.210815,938.250916 1054.545776,924.380432 
	C1054.646118,920.228333 1054.593994,916.046875 1054.223389,911.913696 
	C1052.841431,896.501709 1043.321533,885.659729 1027.794067,884.054810 
	C1014.769409,882.708618 1001.543213,883.303772 988.405884,883.062988 
	C985.481079,883.009399 982.554382,883.055115 979.673950,883.055115 
	C979.673950,926.038940 979.673950,968.408691 979.673950,1010.688416 
	C985.608643,1010.688416 991.188965,1010.688416 997.000061,1010.688416 
	C997.000061,1008.057434 997.000061,1005.745728 997.000061,1002.452148 
M1078.682373,961.499939 
	C1078.682373,977.907715 1078.682373,994.315491 1078.682373,1010.815430 
	C1093.164917,1010.815430 1107.012085,1011.496216 1120.765381,1010.650452 
	C1139.776367,1009.481384 1152.278076,997.693420 1152.836548,980.055725 
	C1153.537354,957.921692 1153.441040,935.736328 1152.837036,913.596313 
	C1152.432251,898.753967 1142.898193,886.981506 1128.173828,884.982788 
	C1111.982056,882.784912 1095.441284,883.156921 1078.682251,882.392456 
	C1078.682251,909.234375 1078.682251,934.867126 1078.682373,961.499939 
M863.653076,947.500122 
	C863.508789,937.007751 863.853943,926.480896 863.118408,916.030090 
	C861.585205,894.243958 846.556946,881.531128 823.664734,881.986145 
	C802.444519,882.408020 787.718750,896.394104 787.173035,917.666809 
	C786.669006,937.315369 786.644043,956.999084 787.189087,976.645630 
	C787.783630,998.073792 802.605896,1011.829224 824.329407,1012.188843 
	C846.678894,1012.558899 861.622803,999.611938 863.139526,977.971802 
	C863.825562,968.183960 863.512634,958.326172 863.653076,947.500122 
M487.845032,689.104187 
	C470.998383,694.473328 461.517395,705.557678 461.084442,722.295532 
	C460.555237,742.752014 460.463684,763.247620 461.089783,783.698486 
	C461.733856,804.736877 477.138245,818.229553 499.071228,818.196289 
	C520.963379,818.163086 536.282532,804.609680 536.910217,783.536133 
	C537.514404,763.250244 537.395996,742.924255 536.932373,722.630920 
	C536.554932,706.110107 526.192505,692.768494 510.893707,689.552979 
	C503.764343,688.054565 496.101776,689.093201 487.845032,689.104187 
M786.502502,817.005066 
	C789.263184,817.005066 792.023865,817.005066 795.199219,817.005066 
	C795.199219,798.444397 795.199219,780.549316 795.199219,762.527344 
	C808.542664,762.527344 821.446350,762.527344 834.785645,762.527344 
	C834.785645,780.722107 834.785645,798.626160 834.785645,816.693604 
	C840.770874,816.693604 846.315369,816.693604 851.746338,816.693604 
	C851.746338,774.012939 851.746338,731.644531 851.746338,689.315613 
	C845.986389,689.315613 840.567139,689.315613 834.570190,689.315613 
	C834.570190,708.291443 834.570190,726.992554 834.570190,745.548584 
	C821.068848,745.548584 808.153137,745.548584 794.884766,745.548584 
	C794.884766,726.637878 794.884766,708.048340 794.884766,689.412720 
	C788.823547,689.412720 783.129211,689.412720 777.453857,689.412720 
	C777.453857,732.031738 777.453857,774.272705 777.453857,817.005066 
	C780.295166,817.005066 782.912476,817.005066 786.502502,817.005066 
M170.453262,991.913513 
	C180.308685,1013.868408 214.668945,1019.820374 231.427078,1002.463562 
	C232.349487,1001.508179 233.178467,1000.454346 233.983734,999.395325 
	C240.175125,991.252319 241.293976,981.771667 241.292053,971.956665 
	C241.286560,943.793701 241.344910,915.630737 241.359772,887.467773 
	C241.360519,886.046997 241.188599,884.626099 241.102432,883.288452 
	C235.223511,883.288452 229.788239,883.288452 223.993057,883.288452 
	C223.993057,884.839050 223.993271,886.136780 223.993027,887.434448 
	C223.987793,916.597290 224.083038,945.760681 223.931259,974.922729 
	C223.863770,987.887512 216.608459,995.161255 204.384506,995.200439 
	C192.148499,995.239746 185.403748,988.468079 184.838959,975.550232 
	C184.758926,973.720093 184.749191,971.885742 184.751053,970.053345 
	C184.778610,942.890198 184.813751,915.727051 184.846619,888.563904 
	C184.848755,886.801086 184.846909,885.038330 184.846909,883.331543 
	C178.607605,883.331543 173.024658,883.331543 167.310486,883.331543 
	C167.234177,884.258179 167.134766,884.898926 167.135391,885.539490 
	C167.164413,914.868958 167.046906,944.200195 167.369232,973.526550 
	C167.434082,979.426697 169.172623,985.308472 170.453262,991.913513 
M418.260986,690.053467 
	C401.562164,690.053467 384.863312,690.053467 368.257263,690.053467 
	C368.257263,732.051514 368.257263,774.292725 368.257263,816.621216 
	C374.155304,816.621216 379.837738,816.621216 385.906372,816.621216 
	C385.906372,800.152222 385.906372,784.068176 385.906372,767.518555 
	C390.914734,767.518555 395.537659,767.566467 400.159088,767.505188 
	C404.818848,767.443359 409.488708,767.439941 414.133911,767.118652 
	C427.465607,766.196533 438.137817,758.080261 441.096069,745.054565 
	C442.834686,737.399231 442.897797,729.240112 442.806335,721.318115 
	C442.620239,705.195190 434.511536,694.939819 418.260986,690.053467 
M267.042358,954.553040 
	C261.462463,973.250854 255.882553,991.948669 250.235764,1010.870605 
	C256.580597,1010.870605 262.553070,1010.870605 268.879303,1010.870605 
	C271.388733,1001.670654 273.900482,992.462097 276.400208,983.297668 
	C289.783661,983.297668 302.852631,983.297668 316.070618,983.297668 
	C318.568207,992.599487 321.007874,1001.685608 323.420197,1010.669922 
	C329.794128,1010.669922 335.822937,1010.669922 342.226929,1010.669922 
	C329.382751,967.910461 316.662628,925.563843 303.953796,883.254944 
	C298.659393,883.254944 293.699585,883.254944 288.553406,883.254944 
	C281.432495,906.843445 274.348389,930.310059 267.042358,954.553040 
M897.979065,925.422241 
	C889.448120,953.801758 880.917175,982.181274 872.315857,1010.794800 
	C878.946838,1010.794800 884.893127,1010.794800 891.023987,1010.794800 
	C893.533813,1001.548035 896.004150,992.446899 898.490601,983.286377 
	C911.818665,983.286377 924.896301,983.286377 938.167053,983.286377 
	C940.663452,992.573853 943.108032,1001.668579 945.516357,1010.628418 
	C951.904053,1010.628418 957.914124,1010.628418 964.026733,1010.628418 
	C963.926392,1009.756165 963.943054,1009.246826 963.803833,1008.784363 
	C952.277283,970.494263 940.738770,932.207764 929.201050,893.921021 
	C925.870911,882.870239 925.870422,883.004761 914.466919,882.976685 
	C911.342041,882.968994 910.248779,884.047607 909.425293,886.921814 
	C905.811523,899.534668 901.918762,912.067627 897.979065,925.422241 
M752.780029,804.156860 
	C759.270996,793.874207 758.695129,782.554749 757.333679,771.234497 
	C756.314392,762.759216 751.887207,756.030396 744.252502,752.295471 
	C737.428467,748.957092 730.051086,746.759583 722.954651,743.965271 
	C717.568298,741.844299 712.146851,739.775452 706.906311,737.329346 
	C698.235840,733.282104 698.836792,712.216431 707.707397,707.771240 
	C717.431396,702.898254 732.786560,701.340759 739.128418,717.774963 
	C739.539795,718.841003 739.948181,719.908264 740.432007,721.167664 
	C745.854309,718.647095 751.069031,716.222961 756.893860,713.515259 
	C754.712769,709.214844 753.242554,705.060486 750.759644,701.641663 
	C740.952148,688.137329 726.909729,686.528992 711.838562,688.723022 
	C699.035034,690.587036 688.519287,696.601440 685.516907,709.745850 
	C683.615417,718.070374 684.261963,727.217224 685.131470,735.857788 
	C685.817810,742.677856 690.336182,748.137024 696.537048,751.406189 
	C701.357544,753.947693 706.477112,755.980774 711.597290,757.880066 
	C717.823547,760.189575 724.310181,761.822388 730.462830,764.298218 
	C737.010742,766.933167 740.751160,771.890625 740.892273,779.288269 
	C741.039856,787.025635 740.626587,794.417114 732.810547,798.825867 
	C719.596558,806.279297 703.762878,800.782532 698.023804,786.740417 
	C697.722107,786.002258 697.335083,785.299011 696.812988,784.217163 
	C691.246094,786.650818 685.898193,788.988708 680.511780,791.343445 
	C683.682800,802.678467 690.031494,810.545654 700.452393,814.847656 
	C710.660706,819.061951 721.241028,818.998596 731.873840,817.040649 
	C740.181946,815.510803 747.185913,811.614746 752.780029,804.156860 
M598.837158,930.652832 
	C592.460754,914.838196 586.084351,899.023560 579.679626,883.138794 
	C573.557068,883.138794 567.590149,883.138794 561.318970,883.138794 
	C561.761353,884.386475 562.079895,885.473206 562.523132,886.506592 
	C568.798523,901.138184 574.291321,916.175354 581.576843,930.286560 
	C591.168762,948.864868 595.458191,968.036377 593.508484,988.830627 
	C592.831909,996.046326 593.400635,1003.378845 593.400635,1010.754395 
	C599.459229,1010.754395 605.036560,1010.754395 610.906189,1010.754395 
	C610.906189,994.385193 610.838806,978.267883 610.975037,962.152283 
	C610.996765,959.580688 611.520813,956.845276 612.509033,954.476074 
	C621.325928,933.336853 630.302063,912.264099 639.223328,891.168335 
	C640.300171,888.621826 641.330017,886.055420 642.568909,883.043030 
	C637.607361,883.043030 633.278259,883.355103 629.017090,882.950562 
	C625.169617,882.585327 623.513367,884.091431 622.199463,887.553406 
	C615.812134,904.383606 609.169373,921.116821 602.249634,938.824585 
	C600.929688,935.801636 599.969238,933.602051 598.837158,930.652832 
M495.500854,883.035095 
	C489.580566,883.035095 483.660248,883.035095 477.707275,883.035095 
	C477.707275,888.951172 477.707275,894.204651 477.707275,899.925537 
	C487.546844,899.925537 497.110291,899.925537 507.041382,899.925537 
	C507.041382,937.122131 507.041382,973.849792 507.041382,1010.679993 
	C512.976746,1010.679993 518.526184,1010.679993 524.465576,1010.679993 
	C524.465576,973.614075 524.465576,936.872009 524.465576,899.652954 
	C534.436279,899.652954 544.017334,899.652954 553.609131,899.652954 
	C553.609131,893.917358 553.609131,888.665894 553.609131,883.035095 
	C534.399414,883.035095 515.450012,883.035095 495.500854,883.035095 
M392.500977,994.480042 
	C386.748474,994.480042 380.995972,994.480042 374.744446,994.480042 
	C374.744446,956.962036 374.744446,920.091736 374.744446,883.362244 
	C368.644775,883.362244 363.068542,883.362244 357.554047,883.362244 
	C357.554047,926.064575 357.554047,968.434448 357.554047,1010.753662 
	C380.161865,1010.753662 402.415253,1010.753662 424.706573,1010.753662 
	C424.706573,1005.273560 424.706573,1000.054382 424.706573,994.480225 
	C414.105164,994.480225 403.802856,994.480225 392.500977,994.480042 
M586.500000,817.000977 
	C599.606873,817.000977 612.713745,817.000977 625.864014,817.000977 
	C625.864014,811.268616 625.864014,806.039062 625.864014,800.393066 
	C609.121643,800.393066 592.694763,800.393066 575.836243,800.393066 
	C575.836243,763.084045 575.836243,726.197937 575.836243,689.269897 
	C569.963257,689.269897 564.533997,689.269897 558.897217,689.269897 
	C558.897217,731.859497 558.897217,774.218872 558.897217,817.000977 
	C567.918579,817.000977 576.709290,817.000977 586.500000,817.000977 
M642.991150,722.500000 
	C642.991150,753.904480 642.991150,785.309021 642.991150,816.718872 
	C649.116638,816.718872 654.680969,816.718872 660.326538,816.718872 
	C660.326538,774.053406 660.326538,731.682800 660.326538,689.319580 
	C654.439392,689.319580 648.862000,689.319580 642.991150,689.319580 
	C642.991150,700.240112 642.991150,710.870056 642.991150,722.500000 
M441.926941,984.500000 
	C441.926941,993.258972 441.926941,1002.017944 441.926941,1010.734985 
	C447.999268,1010.734985 453.423889,1010.734985 458.838074,1010.734985 
	C458.838074,968.083984 458.838074,925.699524 458.838074,883.316650 
	C453.083740,883.316650 447.667694,883.316650 441.926941,883.316650 
	C441.926941,916.894958 441.926941,950.197510 441.926941,984.500000 
z"/>
<path fill="#013F76" opacity="1.000000" stroke="none" 
	d="
M875.235535,361.999939 
	C875.235535,246.214111 875.235535,130.928299 875.235535,15.264644 
	C877.153503,15.171605 878.755859,15.025609 880.358215,15.026002 
	C940.848938,15.040820 1001.339661,15.024108 1061.830322,15.117054 
	C1087.128784,15.155927 1112.063477,17.765057 1135.691772,27.600201 
	C1178.922852,45.594830 1202.923706,78.416306 1209.024658,124.427315 
	C1212.320679,149.285721 1212.830933,174.448074 1209.417480,199.212906 
	C1203.171387,244.527466 1175.584351,271.846130 1132.706055,284.907837 
	C1127.955811,286.354889 1123.113525,287.499878 1118.318237,288.800476 
	C1118.197510,288.833221 1118.126221,289.047943 1118.401123,288.669739 
	C1129.768311,292.200897 1141.718628,294.853851 1152.802246,299.551697 
	C1188.357788,314.621826 1209.229126,341.803802 1215.940918,379.737701 
	C1217.268799,387.242615 1218.026001,394.952789 1218.026245,402.568329 
	C1218.026611,423.381622 1218.575928,444.281006 1216.945068,464.991730 
	C1212.393433,522.791565 1175.965698,564.046448 1119.373779,575.811584 
	C1104.956909,578.808716 1090.034912,580.636902 1075.326904,580.756409 
	C1009.841248,581.288513 944.348999,581.006531 878.859131,581.011353 
	C877.869873,581.011414 876.880615,580.917786 875.235535,580.834839 
	C875.235535,508.010315 875.235535,435.255127 875.235535,361.999939 
M1094.908203,347.533783 
	C1085.363403,341.078766 1074.648193,338.151276 1063.307007,338.060028 
	C1035.310425,337.834717 1007.310730,337.968018 979.312317,337.967865 
	C978.685181,337.967834 978.058044,338.095459 977.249268,338.183258 
	C977.249268,386.792419 977.249268,435.192474 977.249268,483.999268 
	C978.765320,483.999268 980.056946,483.998810 981.348511,483.999329 
	C1007.014221,484.009888 1032.680176,484.075317 1058.345459,483.983917 
	C1063.325317,483.966187 1068.342896,483.625275 1073.275146,482.942444 
	C1099.310547,479.338043 1115.434570,461.567078 1116.087524,435.289703 
	C1116.476440,419.635590 1116.530273,403.948456 1115.982422,388.302521 
	C1115.407349,371.881012 1109.262695,357.872406 1094.908203,347.533783 
M978.921387,241.638794 
	C991.419617,241.666382 1003.918579,241.793854 1016.415833,241.697083 
	C1033.237671,241.566833 1050.101074,241.938278 1066.868286,240.866165 
	C1088.437256,239.487030 1105.246826,225.077942 1107.746826,203.707520 
	C1109.897339,185.324982 1109.436523,166.501617 1108.549561,147.948746 
	C1107.997314,136.398300 1101.231323,127.067993 1091.360962,120.513428 
	C1082.332642,114.518028 1072.227295,111.993042 1061.549316,111.944618 
	C1034.054199,111.819931 1006.558044,111.905869 979.062256,111.926514 
	C978.455444,111.926971 977.848755,112.153374 977.255737,112.271637 
	C977.156189,113.000366 977.033752,113.478836 977.033630,113.957336 
	C977.022583,155.284897 977.012634,196.612457 977.059875,237.939957 
	C977.061279,239.139114 977.673950,240.337585 978.921387,241.638794 
z"/>
<path fill="#003E76" opacity="1.000000" stroke="none" 
	d="
M789.162537,496.838806 
	C802.683411,508.205414 815.928894,519.347107 829.497925,530.760925 
	C809.649048,554.763062 789.938416,578.598145 769.892151,602.839111 
	C750.839539,586.796997 732.044983,570.972168 713.684204,555.512512 
	C703.038391,561.088867 693.060486,567.154358 682.437927,571.720093 
	C652.142456,584.741882 620.195679,588.015442 587.544006,586.402771 
	C562.693176,585.175354 538.660583,580.319275 516.029602,569.802979 
	C471.990021,549.338318 444.142212,515.049438 432.363464,468.265198 
	C428.537872,453.070282 426.364319,437.054810 426.258331,421.395569 
	C425.692322,337.735199 425.514832,254.064224 426.260406,170.406342 
	C426.612579,130.890976 438.325592,94.625793 464.660797,64.140083 
	C485.575226,39.929535 512.076050,24.474981 542.851257,16.732624 
	C587.833740,5.416049 632.751831,5.844708 676.544250,22.026028 
	C726.226379,40.383633 757.263611,76.209854 770.884644,127.237656 
	C775.158630,143.249176 777.080811,159.602249 777.085999,176.164444 
	C777.111511,257.329041 777.111755,338.493652 777.096863,419.658234 
	C777.093384,438.596588 774.447693,457.179504 768.912048,475.289948 
	C768.009644,478.242126 768.666748,479.730865 770.890442,481.517853 
	C776.992371,486.421631 782.901611,491.565186 789.162537,496.838806 
M672.971252,298.067657 
	C672.944519,258.917603 673.145325,219.765472 672.786072,180.618469 
	C672.628357,163.430573 667.778931,147.545303 656.771423,133.813171 
	C633.623230,104.935249 586.446716,106.374367 564.115906,119.280014 
	C541.156555,132.548889 530.923950,153.588425 530.432251,179.041016 
	C529.660156,219.005630 530.212646,258.995850 530.034119,299.901154 
	C530.022766,337.383636 529.979736,374.866150 530.043884,412.348511 
	C530.051208,416.611847 530.459167,420.901184 531.025818,425.132294 
	C533.498230,443.592407 540.674377,459.685760 555.854858,471.184418 
	C560.987366,475.072021 566.710571,478.577026 572.696899,480.857697 
	C585.260315,485.644196 598.606812,485.575806 611.829651,484.886993 
	C616.443054,484.646667 620.989258,483.116058 626.248413,482.034363 
	C609.229309,467.440247 593.094177,453.604156 576.828552,439.656219 
	C596.924744,415.617432 616.700623,391.961761 636.428467,368.363647 
	C648.548828,378.470245 660.521301,388.453491 672.824890,398.712860 
	C672.824890,365.164825 672.824890,332.079407 672.971252,298.067657 
z"/>
<path fill="#013F76" opacity="1.000000" stroke="none" 
	d="
M360.054932,156.064697 
	C360.056702,178.553497 360.683807,200.573853 359.908203,222.544708 
	C358.471252,263.249695 344.354645,298.589172 313.043579,325.838226 
	C293.215271,343.094147 269.962311,353.596710 244.169510,357.749634 
	C229.923233,360.043427 215.375854,361.071411 200.934357,361.414795 
	C175.614426,362.016876 150.271530,361.653687 124.938263,361.694183 
	C123.133148,361.697052 121.328026,361.694550 119.178337,361.694550 
	C119.178337,434.801392 119.178337,507.572968 119.178337,580.681152 
	C85.248970,580.681152 51.670540,580.681152 17.705084,580.681152 
	C17.705084,392.425903 17.705084,204.046432 17.705084,15.280848 
	C19.053879,15.195672 20.485111,15.025999 21.916309,15.026324 
	C82.416252,15.040050 142.916245,15.031473 203.416107,15.113389 
	C229.624527,15.148874 255.264648,18.620546 279.376892,29.525450 
	C322.521484,49.037834 347.802155,82.721855 356.858093,128.821472 
	C358.584290,137.608688 359.017609,146.649887 360.054932,156.064697 
M206.261505,263.824249 
	C209.732239,263.427612 213.260025,263.303162 216.664368,262.589752 
	C237.323090,258.260345 252.940613,241.250290 254.810318,218.611725 
	C256.286713,200.735397 256.665100,182.609238 255.566055,164.714722 
	C253.668350,133.816498 236.082657,111.344704 199.027939,112.759560 
	C174.233124,113.706291 149.374359,112.978920 124.544220,113.000343 
	C122.779678,113.001862 121.015137,113.000534 119.239174,113.000534 
	C119.239174,163.532867 119.239174,213.457428 119.239174,263.857239 
	C148.081512,263.857239 176.696213,263.857239 206.261505,263.824249 
z"/>
<path fill="#024077" opacity="1.000000" stroke="none" 
	d="
M694.933838,894.021484 
	C694.933838,890.220093 694.933838,886.915344 694.933838,882.606201 
	C712.186035,883.146484 729.185181,882.784180 745.969971,884.509033 
	C757.781555,885.722778 765.333740,893.930725 767.182922,905.955017 
	C768.109619,911.981201 768.349365,918.310425 767.623474,924.349121 
	C766.397827,934.544434 760.649048,941.738770 749.031433,945.051758 
	C756.633850,947.097717 762.307678,949.965149 764.874939,955.725403 
	C767.312866,961.195557 768.472473,967.302246 769.657166,973.236267 
	C770.263428,976.273071 769.872742,979.558472 769.626648,982.707642 
	C768.314087,999.507690 757.855774,1010.110840 741.010376,1010.799805 
	C727.533508,1011.350952 714.018494,1010.971497 700.520447,1011.003906 
	C698.873535,1011.007812 697.226562,1011.004395 694.933838,1011.004395 
	C694.933838,972.019714 694.933838,933.268982 694.933838,894.021484 
M752.065063,967.909424 
	C751.266968,961.112305 748.454346,954.859802 741.345520,954.069885 
	C731.792542,953.008423 722.032959,953.806702 712.542236,953.806702 
	C712.542236,967.356384 712.542236,980.898010 712.542236,994.027344 
	C721.995117,994.027344 731.138794,994.626282 740.162659,993.843445 
	C747.803345,993.180603 751.778137,987.922424 752.107422,980.285645 
	C752.271790,976.472534 752.114868,972.645569 752.065063,967.909424 
M725.502686,936.956421 
	C729.163269,936.935974 732.832275,937.067932 736.482666,936.864014 
	C744.607239,936.410278 749.497498,932.020569 750.330017,923.952271 
	C750.769653,919.691650 750.533752,915.320190 750.197083,911.030640 
	C749.736145,905.158813 746.070984,900.880493 740.614624,900.401550 
	C731.285767,899.582642 721.832947,900.175598 712.427979,900.186279 
	C712.427979,912.277161 712.427979,924.368042 712.427979,936.956421 
	C716.611755,936.956421 720.561157,936.956421 725.502686,936.956421 
z"/>
<path fill="#034178" opacity="1.000000" stroke="none" 
	d="
M143.629028,944.000122 
	C143.499664,955.490723 143.390823,966.481628 143.219025,977.471558 
	C143.193130,979.128662 143.315567,981.003052 142.615295,982.398376 
	C139.125534,989.351379 142.355942,993.349182 148.185715,996.678711 
	C150.900528,998.229126 153.235825,1000.444092 155.858017,1002.445496 
	C152.760773,1006.399353 149.796890,1010.182983 146.659119,1014.188599 
	C141.711746,1010.486816 136.951523,1006.925049 131.887222,1003.135742 
	C123.596619,1010.131653 113.895332,1012.554077 103.246681,1012.171265 
	C82.020515,1011.408081 67.596420,997.431396 67.130325,976.100464 
	C66.708282,956.785034 66.711189,937.446106 67.122978,918.130249 
	C67.582169,896.591248 82.253197,882.410156 103.664375,881.986084 
	C126.737862,881.529053 141.632339,894.377930 143.152054,916.531433 
	C143.766586,925.489807 143.496582,934.508728 143.629028,944.000122 
M126.046494,954.500000 
	C126.012497,942.511414 126.271294,930.512817 125.861160,918.537109 
	C125.460930,906.850281 117.411644,899.198059 106.145691,898.957214 
	C93.769875,898.692627 85.634666,905.513306 84.899979,917.795898 
	C84.244881,928.748108 84.442459,939.757324 84.449265,950.741272 
	C84.454834,959.725708 84.193626,968.759521 85.012321,977.683289 
	C86.401772,992.828430 103.577660,1000.585388 116.541275,991.751770 
	C112.114426,988.363220 107.822273,985.077698 103.301315,981.617065 
	C106.448982,977.592346 109.446266,973.759949 112.445221,969.925354 
	C116.929909,973.136230 121.008682,976.056519 126.046494,979.663452 
	C126.046494,970.752319 126.046494,963.126160 126.046494,954.500000 
z"/>
<path fill="#054279" opacity="1.000000" stroke="none" 
	d="
M997.000061,1002.943115 
	C997.000061,1005.745728 997.000061,1008.057434 997.000061,1010.688416 
	C991.188965,1010.688416 985.608643,1010.688416 979.673950,1010.688416 
	C979.673950,968.408691 979.673950,926.038940 979.673950,883.055115 
	C982.554382,883.055115 985.481079,883.009399 988.405884,883.062988 
	C1001.543213,883.303772 1014.769409,882.708618 1027.794067,884.054810 
	C1043.321533,885.659729 1052.841431,896.501709 1054.223389,911.913696 
	C1054.593994,916.046875 1054.646118,920.228333 1054.545776,924.380432 
	C1054.210815,938.250916 1048.293945,948.641602 1035.030640,954.484314 
	C1043.026001,973.173401 1050.963135,991.726624 1059.211548,1011.007141 
	C1052.853638,1011.007141 1046.968872,1011.199280 1041.117065,1010.845154 
	C1039.946533,1010.774353 1038.452271,1008.807251 1037.868286,1007.398926 
	C1031.443481,991.904846 1025.093506,976.378296 1018.921570,960.782043 
	C1017.759705,957.845886 1016.280090,956.746277 1013.097107,956.930054 
	C1007.967346,957.226257 1002.807983,957.009644 997.000061,957.009644 
	C997.000061,972.294861 997.000061,987.373474 997.000061,1002.943115 
M996.996643,905.577576 
	C996.996643,917.021973 996.996643,928.466370 996.996643,940.455566 
	C1003.255310,940.455566 1009.057739,940.154968 1014.819641,940.510559 
	C1033.919434,941.689331 1037.412109,932.401794 1036.760010,917.274597 
	C1036.667358,915.123718 1036.385742,912.946899 1035.888916,910.853943 
	C1034.472534,904.886047 1029.748657,900.259644 1023.720337,899.983826 
	C1014.972473,899.583557 1006.192749,899.881165 996.996643,899.881165 
	C996.996643,901.675415 996.996643,903.134705 996.996643,905.577576 
z"/>
<path fill="#024077" opacity="1.000000" stroke="none" 
	d="
M1078.682373,960.999878 
	C1078.682251,934.867126 1078.682251,909.234375 1078.682251,882.392456 
	C1095.441284,883.156921 1111.982056,882.784912 1128.173828,884.982788 
	C1142.898193,886.981506 1152.432251,898.753967 1152.837036,913.596313 
	C1153.441040,935.736328 1153.537354,957.921692 1152.836548,980.055725 
	C1152.278076,997.693420 1139.776367,1009.481384 1120.765381,1010.650452 
	C1107.012085,1011.496216 1093.164917,1010.815430 1078.682373,1010.815430 
	C1078.682373,994.315491 1078.682373,977.907715 1078.682373,960.999878 
M1135.046997,981.249634 
	C1135.332031,978.608704 1135.852905,975.968811 1135.864136,973.326721 
	C1135.938232,955.846069 1135.932861,938.364929 1135.869263,920.884216 
	C1135.860352,918.405762 1135.574463,915.894653 1135.107300,913.458069 
	C1133.829102,906.791138 1129.888062,901.589478 1123.269409,900.877808 
	C1114.346802,899.918274 1105.243286,900.639709 1096.353760,900.639709 
	C1096.353760,931.800354 1096.353760,963.005554 1096.353760,994.319824 
	C1104.140869,994.319824 1111.612671,994.572632 1119.059937,994.250854 
	C1127.017212,993.906982 1132.424072,989.752563 1135.046997,981.249634 
z"/>
<path fill="#034178" opacity="1.000000" stroke="none" 
	d="
M863.653015,948.000122 
	C863.512634,958.326172 863.825562,968.183960 863.139526,977.971802 
	C861.622803,999.611938 846.678894,1012.558899 824.329407,1012.188843 
	C802.605896,1011.829224 787.783630,998.073792 787.189087,976.645630 
	C786.644043,956.999084 786.669006,937.315369 787.173035,917.666809 
	C787.718750,896.394104 802.444519,882.408020 823.664734,881.986145 
	C846.556946,881.531128 861.585205,894.243958 863.118408,916.030090 
	C863.853943,926.480896 863.508789,937.007751 863.653015,948.000122 
M846.063171,936.500122 
	C846.027588,930.510559 846.223022,924.508789 845.907410,918.533997 
	C845.289917,906.845032 837.445007,899.203247 826.181274,898.957947 
	C813.814392,898.688599 805.307617,905.544312 804.960327,917.754395 
	C804.398071,937.526978 804.553894,957.334290 804.984070,977.114380 
	C805.179565,986.101868 811.234863,992.623474 819.438538,994.672546 
	C833.605835,998.211182 845.499634,989.546387 845.921143,974.935730 
	C846.280823,962.466187 846.039001,949.979248 846.063171,936.500122 
z"/>
<path fill="#024077" opacity="1.000000" stroke="none" 
	d="
M488.262939,689.043030 
	C496.101776,689.093201 503.764343,688.054565 510.893707,689.552979 
	C526.192505,692.768494 536.554932,706.110107 536.932373,722.630920 
	C537.395996,742.924255 537.514404,763.250244 536.910217,783.536133 
	C536.282532,804.609680 520.963379,818.163086 499.071228,818.196289 
	C477.138245,818.229553 461.733856,804.736877 461.089783,783.698486 
	C460.463684,763.247620 460.555237,742.752014 461.084442,722.295532 
	C461.517395,705.557678 470.998383,694.473328 488.262939,689.043030 
M478.137390,749.500000 
	C478.285645,760.803833 477.695618,772.178467 478.771240,783.393372 
	C480.081451,797.054626 492.006531,804.222961 505.318420,800.480957 
	C514.663147,797.854126 519.771790,790.423767 519.865112,778.657104 
	C519.999695,761.689758 519.941956,744.720398 519.859070,727.752380 
	C519.846130,725.114197 519.517273,722.417175 518.893860,719.854492 
	C517.445190,713.899231 514.122742,709.328979 508.317291,706.831665 
	C493.898621,700.629395 480.026428,708.409241 478.512390,724.067932 
	C477.731049,732.148499 478.221558,740.352051 478.137390,749.500000 
z"/>
<path fill="#034077" opacity="1.000000" stroke="none" 
	d="
M786.016113,817.005066 
	C782.912476,817.005066 780.295166,817.005066 777.453857,817.005066 
	C777.453857,774.272705 777.453857,732.031738 777.453857,689.412720 
	C783.129211,689.412720 788.823547,689.412720 794.884766,689.412720 
	C794.884766,708.048340 794.884766,726.637878 794.884766,745.548584 
	C808.153137,745.548584 821.068848,745.548584 834.570190,745.548584 
	C834.570190,726.992554 834.570190,708.291443 834.570190,689.315613 
	C840.567139,689.315613 845.986389,689.315613 851.746338,689.315613 
	C851.746338,731.644531 851.746338,774.012939 851.746338,816.693604 
	C846.315369,816.693604 840.770874,816.693604 834.785645,816.693604 
	C834.785645,798.626160 834.785645,780.722107 834.785645,762.527344 
	C821.446350,762.527344 808.542664,762.527344 795.199219,762.527344 
	C795.199219,780.549316 795.199219,798.444397 795.199219,817.005066 
	C792.023865,817.005066 789.263184,817.005066 786.016113,817.005066 
z"/>
<path fill="#044178" opacity="1.000000" stroke="none" 
	d="
M170.296387,991.556152 
	C169.172623,985.308472 167.434082,979.426697 167.369232,973.526550 
	C167.046906,944.200195 167.164413,914.868958 167.135391,885.539490 
	C167.134766,884.898926 167.234177,884.258179 167.310486,883.331543 
	C173.024658,883.331543 178.607605,883.331543 184.846909,883.331543 
	C184.846909,885.038330 184.848755,886.801086 184.846619,888.563904 
	C184.813751,915.727051 184.778610,942.890198 184.751053,970.053345 
	C184.749191,971.885742 184.758926,973.720093 184.838959,975.550232 
	C185.403748,988.468079 192.148499,995.239746 204.384506,995.200439 
	C216.608459,995.161255 223.863770,987.887512 223.931259,974.922729 
	C224.083038,945.760681 223.987793,916.597290 223.993027,887.434448 
	C223.993271,886.136780 223.993057,884.839050 223.993057,883.288452 
	C229.788239,883.288452 235.223511,883.288452 241.102432,883.288452 
	C241.188599,884.626099 241.360519,886.046997 241.359772,887.467773 
	C241.344910,915.630737 241.286560,943.793701 241.292053,971.956665 
	C241.293976,981.771667 240.175125,991.252319 233.983734,999.395325 
	C233.178467,1000.454346 232.349487,1001.508179 231.427078,1002.463562 
	C214.668945,1019.820374 180.308685,1013.868408 170.296387,991.556152 
z"/>
<path fill="#054279" opacity="1.000000" stroke="none" 
	d="
M418.672180,690.124146 
	C434.511536,694.939819 442.620239,705.195190 442.806335,721.318115 
	C442.897797,729.240112 442.834686,737.399231 441.096069,745.054565 
	C438.137817,758.080261 427.465607,766.196533 414.133911,767.118652 
	C409.488708,767.439941 404.818848,767.443359 400.159088,767.505188 
	C395.537659,767.566467 390.914734,767.518555 385.906372,767.518555 
	C385.906372,784.068176 385.906372,800.152222 385.906372,816.621216 
	C379.837738,816.621216 374.155304,816.621216 368.257263,816.621216 
	C368.257263,774.292725 368.257263,732.051514 368.257263,690.053467 
	C384.863312,690.053467 401.562164,690.053467 418.672180,690.124146 
M424.721771,738.667419 
	C424.818939,732.528320 425.241516,726.372681 424.929169,720.254456 
	C424.556671,712.958374 419.810669,706.623291 413.701843,706.219482 
	C404.506165,705.611694 395.240540,706.061218 386.015656,706.061218 
	C386.015656,721.208130 386.015656,735.915588 386.015656,750.991638 
	C393.727478,750.991638 401.176147,751.029297 408.624268,750.981873 
	C417.369965,750.926147 421.602325,747.819275 424.721771,738.667419 
z"/>
<path fill="#034077" opacity="1.000000" stroke="none" 
	d="
M267.153320,954.164856 
	C274.348389,930.310059 281.432495,906.843445 288.553406,883.254944 
	C293.699585,883.254944 298.659393,883.254944 303.953796,883.254944 
	C316.662628,925.563843 329.382751,967.910461 342.226929,1010.669922 
	C335.822937,1010.669922 329.794128,1010.669922 323.420197,1010.669922 
	C321.007874,1001.685608 318.568207,992.599487 316.070618,983.297668 
	C302.852631,983.297668 289.783661,983.297668 276.400208,983.297668 
	C273.900482,992.462097 271.388733,1001.670654 268.879303,1010.870605 
	C262.553070,1010.870605 256.580597,1010.870605 250.235764,1010.870605 
	C255.882553,991.948669 261.462463,973.250854 267.153320,954.164856 
M284.048553,966.555420 
	C292.968018,966.555420 301.887512,966.555420 311.534546,966.555420 
	C306.442047,947.529480 301.539124,929.211853 296.226776,909.364563 
	C290.937103,928.926941 286.030121,947.035583 281.236023,965.174133 
	C281.164856,965.443420 282.497681,966.083740 284.048553,966.555420 
z"/>
<path fill="#034077" opacity="1.000000" stroke="none" 
	d="
M898.053101,925.025879 
	C901.918762,912.067627 905.811523,899.534668 909.425293,886.921814 
	C910.248779,884.047607 911.342041,882.968994 914.466919,882.976685 
	C925.870422,883.004761 925.870911,882.870239 929.201050,893.921021 
	C940.738770,932.207764 952.277283,970.494263 963.803833,1008.784363 
	C963.943054,1009.246826 963.926392,1009.756165 964.026733,1010.628418 
	C957.914124,1010.628418 951.904053,1010.628418 945.516357,1010.628418 
	C943.108032,1001.668579 940.663452,992.573853 938.167053,983.286377 
	C924.896301,983.286377 911.818665,983.286377 898.490601,983.286377 
	C896.004150,992.446899 893.533813,1001.548035 891.023987,1010.794800 
	C884.893127,1010.794800 878.946838,1010.794800 872.315857,1010.794800 
	C880.917175,982.181274 889.448120,953.801758 898.053101,925.025879 
M912.795166,930.179749 
	C909.533691,942.114746 906.272217,954.049805 902.959778,966.171021 
	C913.288879,966.171021 923.134277,966.171021 933.549072,966.171021 
	C928.507141,947.365845 923.600159,929.063965 918.313416,909.345764 
	C916.285889,916.971191 914.636108,923.175720 912.795166,930.179749 
z"/>
<path fill="#034178" opacity="1.000000" stroke="none" 
	d="
M752.553345,804.441162 
	C747.185913,811.614746 740.181946,815.510803 731.873840,817.040649 
	C721.241028,818.998596 710.660706,819.061951 700.452393,814.847656 
	C690.031494,810.545654 683.682800,802.678467 680.511780,791.343445 
	C685.898193,788.988708 691.246094,786.650818 696.812988,784.217163 
	C697.335083,785.299011 697.722107,786.002258 698.023804,786.740417 
	C703.762878,800.782532 719.596558,806.279297 732.810547,798.825867 
	C740.626587,794.417114 741.039856,787.025635 740.892273,779.288269 
	C740.751160,771.890625 737.010742,766.933167 730.462830,764.298218 
	C724.310181,761.822388 717.823547,760.189575 711.597290,757.880066 
	C706.477112,755.980774 701.357544,753.947693 696.537048,751.406189 
	C690.336182,748.137024 685.817810,742.677856 685.131470,735.857788 
	C684.261963,727.217224 683.615417,718.070374 685.516907,709.745850 
	C688.519287,696.601440 699.035034,690.587036 711.838562,688.723022 
	C726.909729,686.528992 740.952148,688.137329 750.759644,701.641663 
	C753.242554,705.060486 754.712769,709.214844 756.893860,713.515259 
	C751.069031,716.222961 745.854309,718.647095 740.432007,721.167664 
	C739.948181,719.908264 739.539795,718.841003 739.128418,717.774963 
	C732.786560,701.340759 717.431396,702.898254 707.707397,707.771240 
	C698.836792,712.216431 698.235840,733.282104 706.906311,737.329346 
	C712.146851,739.775452 717.568298,741.844299 722.954651,743.965271 
	C730.051086,746.759583 737.428467,748.957092 744.252502,752.295471 
	C751.887207,756.030396 756.314392,762.759216 757.333679,771.234497 
	C758.695129,782.554749 759.270996,793.874207 752.553345,804.441162 
z"/>
<path fill="#054278" opacity="1.000000" stroke="none" 
	d="
M598.922974,931.027710 
	C599.969238,933.602051 600.929688,935.801636 602.249634,938.824585 
	C609.169373,921.116821 615.812134,904.383606 622.199463,887.553406 
	C623.513367,884.091431 625.169617,882.585327 629.017090,882.950562 
	C633.278259,883.355103 637.607361,883.043030 642.568909,883.043030 
	C641.330017,886.055420 640.300171,888.621826 639.223328,891.168335 
	C630.302063,912.264099 621.325928,933.336853 612.509033,954.476074 
	C611.520813,956.845276 610.996765,959.580688 610.975037,962.152283 
	C610.838806,978.267883 610.906189,994.385193 610.906189,1010.754395 
	C605.036560,1010.754395 599.459229,1010.754395 593.400635,1010.754395 
	C593.400635,1003.378845 592.831909,996.046326 593.508484,988.830627 
	C595.458191,968.036377 591.168762,948.864868 581.576843,930.286560 
	C574.291321,916.175354 568.798523,901.138184 562.523132,886.506592 
	C562.079895,885.473206 561.761353,884.386475 561.318970,883.138794 
	C567.590149,883.138794 573.557068,883.138794 579.679626,883.138794 
	C586.084351,899.023560 592.460754,914.838196 598.922974,931.027710 
z"/>
<path fill="#034077" opacity="1.000000" stroke="none" 
	d="
M496.000732,883.035095 
	C515.450012,883.035095 534.399414,883.035095 553.609131,883.035095 
	C553.609131,888.665894 553.609131,893.917358 553.609131,899.652954 
	C544.017334,899.652954 534.436279,899.652954 524.465576,899.652954 
	C524.465576,936.872009 524.465576,973.614075 524.465576,1010.679993 
	C518.526184,1010.679993 512.976746,1010.679993 507.041382,1010.679993 
	C507.041382,973.849792 507.041382,937.122131 507.041382,899.925537 
	C497.110291,899.925537 487.546844,899.925537 477.707275,899.925537 
	C477.707275,894.204651 477.707275,888.951172 477.707275,883.035095 
	C483.660248,883.035095 489.580566,883.035095 496.000732,883.035095 
z"/>
<path fill="#054278" opacity="1.000000" stroke="none" 
	d="
M393.000763,994.480103 
	C403.802856,994.480225 414.105164,994.480225 424.706573,994.480225 
	C424.706573,1000.054382 424.706573,1005.273560 424.706573,1010.753662 
	C402.415253,1010.753662 380.161865,1010.753662 357.554047,1010.753662 
	C357.554047,968.434448 357.554047,926.064575 357.554047,883.362244 
	C363.068542,883.362244 368.644775,883.362244 374.744446,883.362244 
	C374.744446,920.091736 374.744446,956.962036 374.744446,994.480042 
	C380.995972,994.480042 386.748474,994.480042 393.000763,994.480103 
z"/>
<path fill="#003E76" opacity="1.000000" stroke="none" 
	d="
M586.000000,817.000977 
	C576.709290,817.000977 567.918579,817.000977 558.897217,817.000977 
	C558.897217,774.218872 558.897217,731.859497 558.897217,689.269897 
	C564.533997,689.269897 569.963257,689.269897 575.836243,689.269897 
	C575.836243,726.197937 575.836243,763.084045 575.836243,800.393066 
	C592.694763,800.393066 609.121643,800.393066 625.864014,800.393066 
	C625.864014,806.039062 625.864014,811.268616 625.864014,817.000977 
	C612.713745,817.000977 599.606873,817.000977 586.000000,817.000977 
z"/>
<path fill="#07437A" opacity="1.000000" stroke="none" 
	d="
M642.991150,722.000000 
	C642.991150,710.870056 642.991150,700.240112 642.991150,689.319580 
	C648.862000,689.319580 654.439392,689.319580 660.326538,689.319580 
	C660.326538,731.682800 660.326538,774.053406 660.326538,816.718872 
	C654.680969,816.718872 649.116638,816.718872 642.991150,816.718872 
	C642.991150,785.309021 642.991150,753.904480 642.991150,722.000000 
z"/>
<path fill="#003E76" opacity="1.000000" stroke="none" 
	d="
M441.926941,984.000000 
	C441.926941,950.197510 441.926941,916.894958 441.926941,883.316650 
	C447.667694,883.316650 453.083740,883.316650 458.838074,883.316650 
	C458.838074,925.699524 458.838074,968.083984 458.838074,1010.734985 
	C453.423889,1010.734985 447.999268,1010.734985 441.926941,1010.734985 
	C441.926941,1002.017944 441.926941,993.258972 441.926941,984.000000 
z"/>
<path fill="#FFFFFF" opacity="1.000000" stroke="none" 
	d="
M1095.210205,347.731140 
	C1109.262695,357.872406 1115.407349,371.881012 1115.982422,388.302521 
	C1116.530273,403.948456 1116.476440,419.635590 1116.087524,435.289703 
	C1115.434570,461.567078 1099.310547,479.338043 1073.275146,482.942444 
	C1068.342896,483.625275 1063.325317,483.966187 1058.345459,483.983917 
	C1032.680176,484.075317 1007.014221,484.009888 981.348511,483.999329 
	C980.056946,483.998810 978.765320,483.999268 977.249268,483.999268 
	C977.249268,435.192474 977.249268,386.792419 977.249268,338.183258 
	C978.058044,338.095459 978.685181,337.967834 979.312317,337.967865 
	C1007.310730,337.968018 1035.310425,337.834717 1063.307007,338.060028 
	C1074.648193,338.151276 1085.363403,341.078766 1095.210205,347.731140 
z"/>
<path fill="#FEFEFE" opacity="1.000000" stroke="none" 
	d="
M978.461487,241.587585 
	C977.673950,240.337585 977.061279,239.139114 977.059875,237.939957 
	C977.012634,196.612457 977.022583,155.284897 977.033630,113.957336 
	C977.033752,113.478836 977.156189,113.000366 977.255737,112.271637 
	C977.848755,112.153374 978.455444,111.926971 979.062256,111.926514 
	C1006.558044,111.905869 1034.054199,111.819931 1061.549316,111.944618 
	C1072.227295,111.993042 1082.332642,114.518028 1091.360962,120.513428 
	C1101.231323,127.067993 1107.997314,136.398300 1108.549561,147.948746 
	C1109.436523,166.501617 1109.897339,185.324982 1107.746826,203.707520 
	C1105.246826,225.077942 1088.437256,239.487030 1066.868286,240.866165 
	C1050.101074,241.938278 1033.237671,241.566833 1016.415833,241.697083 
	C1003.918579,241.793854 991.419617,241.666382 978.461487,241.587585 
z"/>
<path fill="#FFFFFF" opacity="1.000000" stroke="none" 
	d="
M530.204224,298.975220 
	C530.212646,258.995850 529.660156,219.005630 530.432251,179.041016 
	C530.923950,153.588425 541.156555,132.548889 564.115906,119.280014 
	C586.446716,106.374367 633.623230,104.935249 656.771423,133.813171 
	C667.778931,147.545303 672.628357,163.430573 672.786072,180.618469 
	C673.145325,219.765472 672.944519,258.917603 672.441284,298.531952 
	C624.675598,298.989227 577.439880,298.982239 530.204224,298.975220 
z"/>
<path fill="#ED1C24" opacity="1.000000" stroke="none" 
	d="
M530.119141,299.438171 
	C577.439880,298.982239 624.675598,298.989227 672.368042,298.995117 
	C672.824890,332.079407 672.824890,365.164825 672.824890,398.712860 
	C660.521301,388.453491 648.548828,378.470245 636.428467,368.363647 
	C616.700623,391.961761 596.924744,415.617432 576.828552,439.656219 
	C593.094177,453.604156 609.229309,467.440247 626.248413,482.034363 
	C620.989258,483.116058 616.443054,484.646667 611.829651,484.886993 
	C598.606812,485.575806 585.260315,485.644196 572.696899,480.857697 
	C566.710571,478.577026 560.987366,475.072021 555.854858,471.184418 
	C540.674377,459.685760 533.498230,443.592407 531.025818,425.132294 
	C530.459167,420.901184 530.051208,416.611847 530.043884,412.348511 
	C529.979736,374.866150 530.022766,337.383636 530.119141,299.438171 
z"/>
<path fill="#FEFFFF" opacity="1.000000" stroke="none" 
	d="
M205.786194,263.840759 
	C176.696213,263.857239 148.081512,263.857239 119.239174,263.857239 
	C119.239174,213.457428 119.239174,163.532867 119.239174,113.000534 
	C121.015137,113.000534 122.779678,113.001862 124.544220,113.000343 
	C149.374359,112.978920 174.233124,113.706291 199.027939,112.759560 
	C236.082657,111.344704 253.668350,133.816498 255.566055,164.714722 
	C256.665100,182.609238 256.286713,200.735397 254.810318,218.611725 
	C252.940613,241.250290 237.323090,258.260345 216.664368,262.589752 
	C213.260025,263.303162 209.732239,263.427612 205.786194,263.840759 
z"/>
<path fill="#FCFDFD" opacity="1.000000" stroke="none" 
	d="
M752.084167,968.367126 
	C752.114868,972.645569 752.271790,976.472534 752.107422,980.285645 
	C751.778137,987.922424 747.803345,993.180603 740.162659,993.843445 
	C731.138794,994.626282 721.995117,994.027344 712.542236,994.027344 
	C712.542236,980.898010 712.542236,967.356384 712.542236,953.806702 
	C722.032959,953.806702 731.792542,953.008423 741.345520,954.069885 
	C748.454346,954.859802 751.266968,961.112305 752.084167,968.367126 
z"/>
<path fill="#F9FAFC" opacity="1.000000" stroke="none" 
	d="
M725.006653,936.956421 
	C720.561157,936.956421 716.611755,936.956421 712.427979,936.956421 
	C712.427979,924.368042 712.427979,912.277161 712.430054,900.180908 
	C721.832947,900.175598 731.285767,899.582642 740.614624,900.401550 
	C746.070984,900.880493 749.736145,905.158813 750.197083,911.030640 
	C750.533752,915.320190 750.769653,919.691650 750.330017,923.952271 
	C749.497498,932.020569 744.607239,936.410278 736.482666,936.864014 
	C732.832275,937.067932 729.163269,936.935974 725.006653,936.956421 
z"/>
<path fill="#FCFDFD" opacity="1.000000" stroke="none" 
	d="
M126.046494,955.000000 
	C126.046494,963.126160 126.046494,970.752319 126.046494,979.663452 
	C121.008682,976.056519 116.929909,973.136230 112.445221,969.925354 
	C109.446266,973.759949 106.448982,977.592346 103.301315,981.617065 
	C107.822273,985.077698 112.114426,988.363220 116.541275,991.751770 
	C103.577660,1000.585388 86.401772,992.828430 85.012321,977.683289 
	C84.193626,968.759521 84.454834,959.725708 84.449265,950.741272 
	C84.442459,939.757324 84.244881,928.748108 84.899979,917.795898 
	C85.634666,905.513306 93.769875,898.692627 106.145691,898.957214 
	C117.411644,899.198059 125.460930,906.850281 125.861160,918.537109 
	C126.271294,930.512817 126.012497,942.511414 126.046494,955.000000 
z"/>
<path fill="#FDFDFE" opacity="1.000000" stroke="none" 
	d="
M996.996643,905.085815 
	C996.996643,903.134705 996.996643,901.675415 996.996643,899.881165 
	C1006.192749,899.881165 1014.972473,899.583557 1023.720337,899.983826 
	C1029.748657,900.259644 1034.472534,904.886047 1035.888916,910.853943 
	C1036.385742,912.946899 1036.667358,915.123718 1036.760010,917.274597 
	C1037.412109,932.401794 1033.919434,941.689331 1014.819641,940.510559 
	C1009.057739,940.154968 1003.255310,940.455566 996.996643,940.455566 
	C996.996643,928.466370 996.996643,917.021973 996.996643,905.085815 
z"/>
<path fill="#FDFDFE" opacity="1.000000" stroke="none" 
	d="
M1134.984497,981.654175 
	C1132.424072,989.752563 1127.017212,993.906982 1119.059937,994.250854 
	C1111.612671,994.572632 1104.140869,994.319824 1096.353760,994.319824 
	C1096.353760,963.005554 1096.353760,931.800354 1096.353760,900.639709 
	C1105.243286,900.639709 1114.346802,899.918274 1123.269409,900.877808 
	C1129.888062,901.589478 1133.829102,906.791138 1135.107300,913.458069 
	C1135.574463,915.894653 1135.860352,918.405762 1135.869263,920.884216 
	C1135.932861,938.364929 1135.938232,955.846069 1135.864136,973.326721 
	C1135.852905,975.968811 1135.332031,978.608704 1134.984497,981.654175 
z"/>
<path fill="#FCFDFD" opacity="1.000000" stroke="none" 
	d="
M846.063232,937.000061 
	C846.039001,949.979248 846.280823,962.466187 845.921143,974.935730 
	C845.499634,989.546387 833.605835,998.211182 819.438538,994.672546 
	C811.234863,992.623474 805.179565,986.101868 804.984070,977.114380 
	C804.553894,957.334290 804.398071,937.526978 804.960327,917.754395 
	C805.307617,905.544312 813.814392,898.688599 826.181274,898.957947 
	C837.445007,899.203247 845.289917,906.845032 845.907410,918.533997 
	C846.223022,924.508789 846.027588,930.510559 846.063232,937.000061 
z"/>
<path fill="#FCFDFD" opacity="1.000000" stroke="none" 
	d="
M478.137390,749.000000 
	C478.221558,740.352051 477.731049,732.148499 478.512390,724.067932 
	C480.026428,708.409241 493.898621,700.629395 508.317291,706.831665 
	C514.122742,709.328979 517.445190,713.899231 518.893860,719.854492 
	C519.517273,722.417175 519.846130,725.114197 519.859070,727.752380 
	C519.941956,744.720398 519.999695,761.689758 519.865112,778.657104 
	C519.771790,790.423767 514.663147,797.854126 505.318420,800.480957 
	C492.006531,804.222961 480.081451,797.054626 478.771240,783.393372 
	C477.695618,772.178467 478.285645,760.803833 478.137390,749.000000 
z"/>
<path fill="#FEFEFE" opacity="1.000000" stroke="none" 
	d="
M424.598633,739.071838 
	C421.602325,747.819275 417.369965,750.926147 408.624268,750.981873 
	C401.176147,751.029297 393.727478,750.991638 386.015656,750.991638 
	C386.015656,735.915588 386.015656,721.208130 386.015656,706.061218 
	C395.240540,706.061218 404.506165,705.611694 413.701843,706.219482 
	C419.810669,706.623291 424.556671,712.958374 424.929169,720.254456 
	C425.241516,726.372681 424.818939,732.528320 424.598633,739.071838 
z"/>
<path fill="#F8F9FB" opacity="1.000000" stroke="none" 
	d="
M283.611877,966.553223 
	C282.497681,966.083740 281.164856,965.443420 281.236023,965.174133 
	C286.030121,947.035583 290.937103,928.926941 296.226776,909.364563 
	C301.539124,929.211853 306.442047,947.529480 311.534546,966.555420 
	C301.887512,966.555420 292.968018,966.555420 283.611877,966.553223 
z"/>
<path fill="#F8F9FB" opacity="1.000000" stroke="none" 
	d="
M912.890747,929.779968 
	C914.636108,923.175720 916.285889,916.971191 918.313416,909.345764 
	C923.600159,929.063965 928.507141,947.365845 933.549072,966.171021 
	C923.134277,966.171021 913.288879,966.171021 902.959778,966.171021 
	C906.272217,954.049805 909.533691,942.114746 912.890747,929.779968 
z"/>
</svg>